<svg width="581" height="580" viewBox="0 0 581 580" fill="none" xmlns="http://www.w3.org/2000/svg">
<path d="M16 24L23.8906 29.2604C24.5624 29.7083 25.4376 29.7083 26.1094 29.2604L34 24H16ZM18 35H32C33.1046 35 34 34.1046 34 33V23C34 21.8954 33.1046 21 32 21H18C16.8954 21 16 21.8954 16 23V33C16 34.1046 16.8954 35 18 35Z" stroke="#777" stroke-width="2" stroke-linecap="round" stroke-linejoin="round"/>
<path d="M30.6569 80.6569C29.7202 81.5935 27.7616 83.5521 26.4138 84.8999C25.6327 85.681 24.3677 85.6814 23.5866 84.9003C22.2623 83.576 20.3416 81.6553 19.3432 80.6569C16.2189 77.5327 16.2189 72.4673 19.3432 69.3431C22.4673 66.219 27.5327 66.219 30.6569 69.3431C33.781 72.4673 33.781 77.5327 30.6569 80.6569Z" stroke="#777" stroke-width="2" stroke-linecap="round" stroke-linejoin="round"/>
<path d="M28 75C28 76.6569 26.6569 78 25 78C23.3431 78 22 76.6569 22 75C22 73.3431 23.3431 72 25 72C26.6569 72 28 73.3431 28 75Z" stroke="#777" stroke-width="2" stroke-linecap="round" stroke-linejoin="round"/>
<path d="M20 129H20.01M20 133C17.7909 133 16 131.209 16 129V117C16 115.895 16.8954 115 18 115H22C23.1046 115 24 115.895 24 117V129C24 131.209 22.2091 133 20 133ZM20 133H32C33.1046 133 34 132.105 34 131V127C34 125.895 33.1046 125 32 125H29.6569L20 133ZM24 119.343L25.6569 117.686C26.4379 116.905 27.7042 116.905 28.4853 117.686L31.3137 120.515C32.0948 121.296 32.0948 122.562 31.3137 123.343L22.8284 131.828L24 119.343Z" stroke="#777" stroke-width="2" stroke-linecap="round" stroke-linejoin="round"/>
<path d="M17 178H33M17 166H33H17ZM17 172H33H17Z" stroke="#777" stroke-width="2" stroke-linecap="round" stroke-linejoin="round"/>
<path d="M21.2277 217C21.7768 215.835 23.2584 215 25.0001 215C27.2092 215 29.0001 216.343 29.0001 218C29.0001 219.399 27.7224 220.575 25.9943 220.907C25.4519 221.011 25.0001 221.448 25.0001 222L21.2277 217ZM25 225H25.01H25ZM34 220C34 224.971 29.9706 229 25 229C20.0294 229 16 224.971 16 220C16 215.029 20.0294 211 25 211C29.9706 211 34 215.029 34 220Z" stroke="#777" stroke-width="2" stroke-linecap="round" stroke-linejoin="round"/>
<path d="M16 265C16 263.895 16.8954 263 18 263H18.9296C19.5983 263 20.2228 262.666 20.5937 262.109L21.4063 260.891C21.7772 260.334 22.4017 260 23.0704 260H26.9296C27.5983 260 28.2228 260.334 28.5937 260.891L29.4063 262.109C29.7772 262.666 30.4017 263 31.0704 263H32C33.1046 263 34 263.895 34 265V274C34 275.105 33.1046 276 32 276H18C16.8954 276 16 275.105 16 274V265Z" stroke="#777" stroke-width="2" stroke-linecap="round" stroke-linejoin="round"/>
<path d="M28 269C28 270.657 26.6569 272 25 272C23.3431 272 22 270.657 22 269C22 267.343 23.3431 266 25 266C26.6569 266 28 267.343 28 269Z" stroke="#777" stroke-width="2" stroke-linecap="round" stroke-linejoin="round"/>
<path d="M27.25 318.5L26.1094 319.261C25.4376 319.708 24.5624 319.708 23.8906 319.261L22.75 318.5M16 323V314.07C16 313.402 16.3342 312.777 16.8906 312.406L23.8906 307.74C24.5624 307.292 25.4376 307.292 26.1094 307.74L33.1094 312.406C33.6658 312.777 34 313.402 34 314.07V323H16ZM16 323C16 324.105 16.8954 325 18 325H32C33.1046 325 34 324.105 34 323H16ZM16 323L22.75 318.5L16 323ZM34 323L27.25 318.5L34 323ZM16 314L22.75 318.5L16 314ZM34 314L27.25 318.5L34 314Z" stroke="#777" stroke-width="2" stroke-linecap="round" stroke-linejoin="round"/>
<path d="M25 355V373M18 362L25 355L18 362ZM25 355L32 362L25 355Z" stroke="#777" stroke-width="2" stroke-linecap="round" stroke-linejoin="round"/>
<path d="M23 414L25 412L23 414ZM25 412L27 410L25 412ZM25 412L23 410L25 412ZM25 412L27 414L25 412ZM34 412C34 416.971 29.9706 421 25 421C20.0294 421 16 416.971 16 412C16 407.029 20.0294 403 25 403C29.9706 403 34 407.029 34 412Z" stroke="#777" stroke-width="2" stroke-linecap="round" stroke-linejoin="round"/>
<path d="M18 460H18.01H18ZM25 460H25.01H25ZM32 460H32.01H32ZM19 460C19 460.552 18.5523 461 18 461C17.4477 461 17 460.552 17 460C17 459.448 17.4477 459 18 459C18.5523 459 19 459.448 19 460ZM26 460C26 460.552 25.5523 461 25 461C24.4477 461 24 460.552 24 460C24 459.448 24.4477 459 25 459C25.5523 459 26 459.448 26 460ZM33 460C33 460.552 32.5523 461 32 461C31.4477 461 31 460.552 31 460C31 459.448 31.4477 459 32 459C32.5523 459 33 459.448 33 460Z" stroke="#777" stroke-width="2" stroke-linecap="round" stroke-linejoin="round"/>
<path d="M26.8434 505.655C27.2053 506.073 27.8369 506.117 28.254 505.755C28.6712 505.393 28.7159 504.762 28.354 504.345L26.8434 505.655ZM23.1567 510.345C22.7947 509.927 22.1631 509.883 21.746 510.245C21.3288 510.607 21.2841 511.238 21.6461 511.655L23.1567 510.345ZM26 503C26 502.448 25.5523 502 25 502C24.4477 502 24 502.448 24 503H26ZM24 513C24 513.552 24.4477 514 25 514C25.5523 514 26 513.552 26 513H24ZM33 508C33 512.418 29.4183 516 25 516V518C30.5228 518 35 513.523 35 508H33ZM25 516C20.5817 516 17 512.418 17 508H15C15 513.523 19.4771 518 25 518V516ZM17 508C17 503.582 20.5817 500 25 500V498C19.4771 498 15 502.477 15 508H17ZM25 500C29.4183 500 33 503.582 33 508H35C35 502.477 30.5228 498 25 498V500ZM25 507C24.3415 507 23.7905 506.82 23.4334 506.582C23.0693 506.339 23 506.114 23 506H21C21 506.991 21.6023 507.765 22.324 508.246C23.0526 508.732 24.0017 509 25 509V507ZM23 506C23 505.886 23.0693 505.661 23.4334 505.418C23.7905 505.18 24.3415 505 25 505V503C24.0017 503 23.0526 503.268 22.324 503.754C21.6023 504.235 21 505.009 21 506H23ZM25 505C25.9038 505 26.563 505.332 26.8434 505.655L28.354 504.345C27.5969 503.472 26.3171 503 25 503V505ZM25 509C25.6585 509 26.2095 509.18 26.5666 509.418C26.9308 509.661 27 509.886 27 510H29C29 509.009 28.3977 508.235 27.676 507.754C26.9474 507.268 25.9983 507 25 507V509ZM24 503V504H26V503H24ZM24 512V513H26V512H24ZM25 511C24.0962 511 23.437 510.668 23.1567 510.345L21.6461 511.655C22.4032 512.528 23.683 513 25 513V511ZM27 510C27 510.114 26.9308 510.339 26.5666 510.582C26.2095 510.82 25.6586 511 25 511V513C25.9983 513 26.9474 512.732 27.676 512.246C28.3977 511.765 29 510.991 29 510H27ZM24 504V512H26V504H24Z" fill="#777"/>
<path d="M21 556H21.01H21ZM25 556H25.01H25ZM29 556H29.01H29ZM34 556C34 560.418 29.9706 564 25 564C23.4607 564 22.0117 563.657 20.7447 563.051L16 564L17.395 560.28C16.5116 559.042 16 557.574 16 556C16 551.582 20.0294 548 25 548C29.9706 548 34 551.582 34 556Z" stroke="#777" stroke-width="2" stroke-linecap="round" stroke-linejoin="round"/>
<path d="M76 33H70M76 33H81L79.5951 31.5951C79.2141 31.2141 79 30.6973 79 30.1585V27C79 24.3876 77.3304 22.1651 75 21.3414V21C75 19.8954 74.1046 19 73 19C71.8954 19 71 19.8954 71 21V21.3414C68.6696 22.1651 67 24.3876 67 27V30.1585C67 30.6973 66.7859 31.2141 66.4049 31.5951L65 33H70H76ZM76 33V34C76 35.6569 74.6569 37 73 37C71.3431 37 70 35.6569 70 34V33H76Z" stroke="#777" stroke-width="2" stroke-linecap="round" stroke-linejoin="round"/>
<path d="M77 71C77 73.2091 75.2091 75 73 75C70.7909 75 69 73.2091 69 71C69 68.7909 70.7909 67 73 67C75.2091 67 77 68.7909 77 71Z" stroke="#777" stroke-width="2" stroke-linecap="round" stroke-linejoin="round"/>
<path d="M73 78C69.134 78 66 81.134 66 85H80C80 81.134 76.866 78 73 78Z" stroke="#777" stroke-width="2" stroke-linecap="round" stroke-linejoin="round"/>
<path d="M81 125H78.4142C78.149 125 77.8946 125.105 77.7071 125.293L75.2929 127.707C75.1054 127.895 74.851 128 74.5858 128H71.4142C71.149 128 70.8946 127.895 70.7071 127.707L68.2929 125.293C68.1054 125.105 67.851 125 67.5858 125H65M81 125V118C81 116.895 80.1046 116 79 116H67C65.8954 116 65 116.895 65 118V125H81ZM81 125V130C81 131.105 80.1046 132 79 132H67C65.8954 132 65 131.105 65 130V125H81Z" stroke="#777" stroke-width="2" stroke-linecap="round" stroke-linejoin="round"/>
<path d="M65 178H81M65 166H81H65ZM65 172H73H65Z" stroke="#777" stroke-width="2" stroke-linecap="round" stroke-linejoin="round"/>
<path d="M73 217V219V217ZM73 223H73.01H73ZM66.0718 227H79.9282C81.4678 227 82.4301 225.333 81.6603 224L74.7321 212C73.9623 210.667 72.0378 210.667 71.268 212L64.3398 224C63.57 225.333 64.5322 227 66.0718 227Z" stroke="#777" stroke-width="2" stroke-linecap="round" stroke-linejoin="round"/>
<path d="M64 268C64 263.029 68.0294 259 73 259M82 268C82 272.971 77.9706 277 73 277L82 268ZM82 268C82 263.029 77.9706 259 73 259L82 268ZM82 268H64H82ZM73 277C68.0294 277 64 272.971 64 268L73 277ZM73 277C74.6569 277 76 272.971 76 268C76 263.029 74.6569 259 73 259V277ZM73 277C71.3431 277 70 272.971 70 268C70 263.029 71.3431 259 73 259V277Z" stroke="#777" stroke-width="2" stroke-linecap="round" stroke-linejoin="round"/>
<path d="M69 311H67C65.8954 311 65 311.895 65 313V323C65 324.105 65.8954 325 67 325H75C76.1046 325 77 324.105 77 323V321M69 311V319C69 320.105 69.8954 321 71 321H77L69 311ZM69 311V309C69 307.895 69.8954 307 71 307H75.5858C75.851 307 76.1054 307.105 76.2929 307.293L80.7071 311.707C80.8946 311.895 81 312.149 81 312.414V319C81 320.105 80.1046 321 79 321H77L69 311Z" stroke="#777" stroke-width="2" stroke-linecap="round" stroke-linejoin="round"/>
<path d="M82 364H64M75 357L82 364L75 357ZM82 364L75 371L82 364Z" stroke="#777" stroke-width="2" stroke-linecap="round" stroke-linejoin="round"/>
<path d="M70 412L72 414L76 410L70 412ZM82 412C82 416.971 77.9706 421 73 421C68.0294 421 64 416.971 64 412C64 407.029 68.0294 403 73 403C77.9706 403 82 407.029 82 412Z" stroke="#777" stroke-width="2" stroke-linecap="round" stroke-linejoin="round"/>
<path d="M73 453V453.01V453ZM73 460V460.01V460ZM73 467V467.01V467ZM73 454C72.4477 454 72 453.552 72 453C72 452.448 72.4477 452 73 452C73.5523 452 74 452.448 74 453C74 453.552 73.5523 454 73 454ZM73 461C72.4477 461 72 460.552 72 460C72 459.448 72.4477 459 73 459C73.5523 459 74 459.448 74 460C74 460.552 73.5523 461 73 461ZM73 468C72.4477 468 72 467.552 72 467C72 466.448 72.4477 466 73 466C73.5523 466 74 466.448 74 467C74 467.552 73.5523 468 73 468Z" stroke="#777" stroke-width="2" stroke-linecap="round" stroke-linejoin="round"/>
<path d="M70 504L73 509L70 504ZM73 509L76 504L73 509ZM73 509V513V509ZM70 508H76H70ZM70 511H76H70ZM82 508C82 512.971 77.9706 517 73 517C68.0294 517 64 512.971 64 508C64 503.029 68.0294 499 73 499C77.9706 499 82 503.029 82 508Z" stroke="#777" stroke-width="2" stroke-linecap="round" stroke-linejoin="round"/>
<path d="M81 565L80.5528 565.894C80.8628 566.049 81.2309 566.033 81.5257 565.851C81.8205 565.668 82 565.347 82 565H81ZM65 565H64C64 565.347 64.1795 565.668 64.4743 565.851C64.7691 566.033 65.1372 566.049 65.4472 565.894L65 565ZM73 565L72.5528 565.894C72.8343 566.035 73.1657 566.035 73.4472 565.894L73 565ZM69 563L69.4472 562.106C69.1657 561.965 68.8343 561.965 68.5528 562.106L69 563ZM77 563L77.4472 562.106C77.1657 561.965 76.8343 561.965 76.5528 562.106L77 563ZM76 559C76 559.552 76.4477 560 77 560C77.5523 560 78 559.552 78 559H76ZM69 554L68.2929 553.293C67.9024 553.683 67.9024 554.317 68.2929 554.707L69 554ZM71.2929 557.707C71.6834 558.098 72.3166 558.098 72.7071 557.707C73.0976 557.317 73.0976 556.683 72.7071 556.293L71.2929 557.707ZM72.7071 551.707C73.0976 551.317 73.0976 550.683 72.7071 550.293C72.3166 549.902 71.6834 549.902 71.2929 550.293L72.7071 551.707ZM67 548H79V546H67V548ZM80 549V565H82V549H80ZM66 565V549H64V565H66ZM73.4472 564.106L69.4472 562.106L68.5528 563.894L72.5528 565.894L73.4472 564.106ZM68.5528 562.106L64.5528 564.106L65.4472 565.894L69.4472 563.894L68.5528 562.106ZM81.4472 564.106L77.4472 562.106L76.5528 563.894L80.5528 565.894L81.4472 564.106ZM76.5528 562.106L72.5528 564.106L73.4472 565.894L77.4472 563.894L76.5528 562.106ZM79 548C79.5523 548 80 548.448 80 549H82C82 547.343 80.6569 546 79 546V548ZM67 546C65.3431 546 64 547.343 64 549H66C66 548.448 66.4477 548 67 548V546ZM78 559V558H76V559H78ZM73 553H69V555H73V553ZM78 558C78 555.239 75.7614 553 73 553V555C74.6569 555 76 556.343 76 558H78ZM72.7071 556.293L69.7071 553.293L68.2929 554.707L71.2929 557.707L72.7071 556.293ZM69.7071 554.707L72.7071 551.707L71.2929 550.293L68.2929 553.293L69.7071 554.707Z" fill="#777"/>
<path d="M118 37H124M112 28L114 26L112 28ZM114 26L121 19L128 26H114ZM114 26V36C114 36.5523 114.448 37 115 37H118L114 26ZM128 26L130 28L128 26ZM128 26V36C128 36.5523 127.552 37 127 37H124L128 26ZM118 37C118.552 37 119 36.5523 119 36V32C119 31.4477 119.448 31 120 31H122C122.552 31 123 31.4477 123 32V36C123 36.5523 123.448 37 124 37H118Z" stroke="#777" stroke-width="2" stroke-linecap="round" stroke-linejoin="round"/>
<path d="M121 68.3542C121.733 67.5238 122.805 67 124 67C126.209 67 128 68.7909 128 71C128 73.2091 126.209 75 124 75C122.805 75 121.733 74.4762 121 73.6458V68.3542ZM124 85H112V84C112 80.6863 114.686 78 118 78C121.314 78 124 80.6863 124 84V85ZM124 85H130V84C130 80.6863 127.314 78 124 78C122.907 78 121.883 78.2922 121 78.8027L124 85ZM122 71C122 73.2091 120.209 75 118 75C115.791 75 114 73.2091 114 71C114 68.7909 115.791 67 118 67C120.209 67 122 68.7909 122 71Z" stroke="#777" stroke-width="2" stroke-linecap="round" stroke-linejoin="round"/>
<path d="M113 125H115.586C115.851 125 116.105 125.105 116.293 125.293L118.707 127.707C118.895 127.895 119.149 128 119.414 128H122.586C122.851 128 123.105 127.895 123.293 127.707L125.707 125.293C125.895 125.105 126.149 125 126.414 125H129M117 116H115C113.895 116 113 116.895 113 118V130C113 131.105 113.895 132 115 132H127C128.105 132 129 131.105 129 130V118C129 116.895 128.105 116 127 116H125H117ZM121 115V123V115ZM121 123L124 120L121 123ZM121 123L118 120L121 123Z" stroke="#777" stroke-width="2" stroke-linecap="round" stroke-linejoin="round"/>
<path d="M113 178H120M113 166H129H113ZM113 172H129H113Z" stroke="#777" stroke-width="2" stroke-linecap="round" stroke-linejoin="round"/>
<path d="M121 217V229M117 225C114.239 225 112 222.761 112 220C112 217.552 113.76 215.514 116.084 215.084C116.514 212.76 118.552 211 121 211C123.448 211 125.486 212.76 125.916 215.084C128.24 215.514 130 217.552 130 220C130 222.761 127.761 225 125 225H117ZM118 220L121 217L118 220ZM121 217L124 220L121 217Z" stroke="#777" stroke-width="2" stroke-linecap="round" stroke-linejoin="round"/>
<path d="M117 272H115C113.895 272 113 271.105 113 270V262C113 260.895 113.895 260 115 260H123C124.105 260 125 260.895 125 262V264L117 272ZM119 276H127C128.105 276 129 275.105 129 274V266C129 264.895 128.105 264 127 264H119C117.895 264 117 264.895 117 266V274C117 275.105 117.895 276 119 276Z" stroke="#777" stroke-width="2" stroke-linecap="round" stroke-linejoin="round"/>
<path d="M112 314H130H112ZM116 319H117H116ZM121 319H122H121ZM115 323H127C128.657 323 130 321.657 130 320V312C130 310.343 128.657 309 127 309H115C113.343 309 112 310.343 112 312V320C112 321.657 113.343 323 115 323Z" stroke="#777" stroke-width="2" stroke-linecap="round" stroke-linejoin="round"/>
<path d="M121 373V355M128 366L121 373L128 366ZM121 373L114 366L121 373Z" stroke="#777" stroke-width="2" stroke-linecap="round" stroke-linejoin="round"/>
<path d="M121 408V412V408ZM121 416H121.01H121ZM130 412C130 416.971 125.971 421 121 421C116.029 421 112 416.971 112 412C112 407.029 116.029 403 121 403C125.971 403 130 407.029 130 412Z" stroke="#777" stroke-width="2" stroke-linecap="round" stroke-linejoin="round"/>
<path d="M121 452V464M113 464V465C113 466.657 114.343 468 116 468H126C127.657 468 129 466.657 129 465V464H113ZM125 456L121 452L125 456ZM121 452L117 456L121 452Z" stroke="#777" stroke-width="2" stroke-linecap="round" stroke-linejoin="round"/>
<path d="M123.121 511.536C121.95 513.488 120.05 513.488 118.879 511.536C117.707 509.583 117.707 506.417 118.879 504.464C120.05 502.512 121.95 502.512 123.121 504.464V511.536ZM117 506.5H121H117ZM117 509.5H121H117ZM130 508C130 512.971 125.971 517 121 517C116.029 517 112 512.971 112 508C112 503.029 116.029 499 121 499C125.971 499 130 503.029 130 508Z" stroke="#777" stroke-width="2" stroke-linecap="round" stroke-linejoin="round"/>
<path d="M130 554V555C130.552 555 131 554.552 131 554H130ZM130 558H131C131 557.448 130.552 557 130 557V558ZM112 558V557C111.448 557 111 557.448 111 558H112ZM112 554H111C111 554.552 111.448 555 112 555V554ZM114 548C112.343 548 111 549.343 111 551H113C113 550.448 113.448 550 114 550V548ZM128 548H114V550H128V548ZM131 551C131 549.343 129.657 548 128 548V550C128.552 550 129 550.448 129 551H131ZM131 554V551H129V554H131ZM129 556C129 555.448 129.448 555 130 555V553C128.343 553 127 554.343 127 556H129ZM130 557C129.448 557 129 556.552 129 556H127C127 557.657 128.343 559 130 559V557ZM131 561V558H129V561H131ZM128 564C129.657 564 131 562.657 131 561H129C129 561.552 128.552 562 128 562V564ZM114 564H128V562H114V564ZM111 561C111 562.657 112.343 564 114 564V562C113.448 562 113 561.552 113 561H111ZM111 558V561H113V558H111ZM113 556C113 556.552 112.552 557 112 557V559C113.657 559 115 557.657 115 556H113ZM112 555C112.552 555 113 555.448 113 556H115C115 554.343 113.657 553 112 553V555ZM111 551V554H113V551H111Z" fill="#777"/>
<path d="M124 549V551" stroke="#777" stroke-width="2" stroke-linecap="round"/>
<path d="M124 555V557" stroke="#777" stroke-width="2" stroke-linecap="round" stroke-linejoin="round"/>
<path d="M124 561V563" stroke="#777" stroke-width="2" stroke-linecap="round" stroke-linejoin="round"/>
<path d="M178 29.2554C175.221 30.3805 172.183 31 169 31C165.817 31 162.779 30.3805 160 29.2554H178ZM173 22V20C173 18.8954 172.105 18 171 18H167C165.895 18 165 18.8954 165 20V22H173ZM169 28H169.01H169ZM162 36H176C177.105 36 178 35.1046 178 34V24C178 22.8954 177.105 22 176 22H162C160.895 22 160 22.8954 160 24V34C160 35.1046 160.895 36 162 36Z" stroke="#777" stroke-width="2" stroke-linecap="round" stroke-linejoin="round"/>
<path d="M174 84H179V82C179 80.3431 177.657 79 176 79C175.044 79 174.193 79.4468 173.644 80.1429L174 84ZM174 84H164H174ZM174 84V82C174 81.3438 173.874 80.717 173.644 80.1429L174 84ZM164 84H159V82C159 80.3431 160.343 79 162 79C162.956 79 163.807 79.4468 164.356 80.1429L164 84ZM164 84V82C164 81.3438 164.126 80.717 164.356 80.1429L164 84ZM164.356 80.1429C165.094 78.301 166.895 77 169 77C171.105 77 172.906 78.301 173.644 80.1429H164.356ZM172 71C172 72.6569 170.657 74 169 74C167.343 74 166 72.6569 166 71C166 69.3431 167.343 68 169 68C170.657 68 172 69.3431 172 71ZM178 74C178 75.1046 177.105 76 176 76C174.895 76 174 75.1046 174 74C174 72.8954 174.895 72 176 72C177.105 72 178 72.8954 178 74ZM164 74C164 75.1046 163.105 76 162 76C160.895 76 160 75.1046 160 74C160 72.8954 160.895 72 162 72C163.105 72 164 72.8954 164 74Z" stroke="#777" stroke-width="2" stroke-linecap="round" stroke-linejoin="round"/>
<path d="M167 124H171M162 120H176H162ZM162 120C160.895 120 160 119.105 160 118C160 116.895 160.895 116 162 116H176C177.105 116 178 116.895 178 118C178 119.105 177.105 120 176 120H162ZM162 120V130C162 131.105 162.895 132 164 132H174C175.105 132 176 131.105 176 130V120H162Z" stroke="#777" stroke-width="2" stroke-linecap="round" stroke-linejoin="round"/>
<path d="M170 178H177M161 166H177H161ZM161 172H177H161Z" stroke="#777" stroke-width="2" stroke-linecap="round" stroke-linejoin="round"/>
<path d="M169 230V218M165 224C162.239 224 160 221.761 160 219C160 216.552 161.76 214.514 164.084 214.084C164.514 211.76 166.552 210 169 210C171.448 210 173.486 211.76 173.916 214.084C176.24 214.514 178 216.552 178 219C178 221.761 175.761 224 173 224H165ZM166 227L169 230L166 227ZM169 230L172 227L169 230Z" stroke="#777" stroke-width="2" stroke-linecap="round" stroke-linejoin="round"/>
<path d="M165.684 269.342C165.886 268.938 166 268.482 166 268C166 267.518 165.886 267.062 165.684 266.658V269.342ZM165.684 269.342C165.191 270.325 164.174 271 163 271C161.343 271 160 269.657 160 268C160 266.343 161.343 265 163 265C164.174 265 165.191 265.675 165.684 266.658V269.342ZM165.684 269.342L172.316 272.658L165.684 269.342ZM165.684 266.658L172.316 263.342L165.684 266.658ZM172.316 263.342C172.809 264.325 173.826 265 175 265C176.657 265 178 263.657 178 262C178 260.343 176.657 259 175 259C173.343 259 172 260.343 172 262C172 262.482 172.114 262.938 172.316 263.342ZM172.316 272.658C172.114 273.062 172 273.518 172 274C172 275.657 173.343 277 175 277C176.657 277 178 275.657 178 274C178 272.343 176.657 271 175 271C173.826 271 172.809 271.675 172.316 272.658Z" stroke="#777" stroke-width="2" stroke-linecap="round" stroke-linejoin="round"/>
<path d="M173 315V316H174V315H173ZM165 315H164V316H165V315ZM170 319C170 318.448 169.552 318 169 318C168.448 318 168 318.448 168 319H170ZM168 321C168 321.552 168.448 322 169 322C169.552 322 170 321.552 170 321H168ZM163 316H175V314H163V316ZM176 317V323H178V317H176ZM175 324H163V326H175V324ZM162 323V317H160V323H162ZM163 324C162.448 324 162 323.552 162 323H160C160 324.657 161.343 326 163 326V324ZM176 323C176 323.552 175.552 324 175 324V326C176.657 326 178 324.657 178 323H176ZM175 316C175.552 316 176 316.448 176 317H178C178 315.343 176.657 314 175 314V316ZM163 314C161.343 314 160 315.343 160 317H162C162 316.448 162.448 316 163 316V314ZM172 311V315H174V311H172ZM173 314H165V316H173V314ZM166 315V311H164V315H166ZM169 308C170.657 308 172 309.343 172 311H174C174 308.239 171.761 306 169 306V308ZM169 306C166.239 306 164 308.239 164 311H166C166 309.343 167.343 308 169 308V306ZM168 319V321H170V319H168Z" fill="#777"/>
<path d="M160 364H178M167 371L160 364L167 371ZM160 364L167 357L160 364Z" stroke="#777" stroke-width="2" stroke-linecap="round" stroke-linejoin="round"/>
<path d="M169 409V412V409ZM169 412V415V412ZM169 412H172H169ZM169 412H166H169ZM178 412C178 416.971 173.971 421 169 421C164.029 421 160 416.971 160 412C160 407.029 164.029 403 169 403C173.971 403 178 407.029 178 412Z" stroke="#777" stroke-width="2" stroke-linecap="round" stroke-linejoin="round"/>
<path d="M169 464V452M161 464V465C161 466.657 162.343 468 164 468H174C175.657 468 177 466.657 177 465V464H161ZM173 460L169 464L173 460ZM169 464L165 460L169 464Z" stroke="#777" stroke-width="2" stroke-linecap="round" stroke-linejoin="round"/>
<path d="M172 505C172 503.895 171.105 503 170 503C168.895 503 168 503.895 168 505V510C168 511.105 167.105 512 166 512H172V505ZM166 508H170H166ZM178 508C178 512.971 173.971 517 169 517C164.029 517 160 512.971 160 508C160 503.029 164.029 499 169 499C173.971 499 178 503.029 178 508Z" stroke="#777" stroke-width="2" stroke-linecap="round" stroke-linejoin="round"/>
<path d="M165 555V551C165 548.791 166.791 547 169 547C171.209 547 173 548.791 173 551L165 555ZM169 559V561V559ZM163 565H175C176.105 565 177 564.105 177 563V557C177 555.895 176.105 555 175 555H163C161.895 555 161 555.895 161 557V563C161 564.105 161.895 565 163 565Z" stroke="#777" stroke-width="2" stroke-linecap="round"/>
<path d="M214 28L216 30L220 26L214 28ZM225.618 21.9843C225.413 21.9947 225.207 22 225 22C221.927 22 219.123 20.8445 217 18.9443C214.877 20.8445 212.073 21.9998 209 21.9998C208.793 21.9998 208.587 21.9946 208.382 21.9842C208.133 22.9478 208 23.9584 208 25C208 30.5915 211.824 35.2898 217 36.622C222.176 35.2898 226 30.5915 226 25C226 23.9585 225.867 22.9479 225.618 21.9843Z" stroke="#777" stroke-width="2" stroke-linecap="round" stroke-linejoin="round"/>
<path d="M215 85H219M224 85V69C224 67.8954 223.105 67 222 67H212C210.895 67 210 67.8954 210 69V85H224ZM224 85H226H224ZM224 85H219H224ZM210 85H208H210ZM210 85H215H210ZM214 71H215H214ZM214 75H215H214ZM219 71H220H219ZM219 75H220H219ZM215 85V80C215 79.4477 215.448 79 216 79H218C218.552 79 219 79.4477 219 80V85H215Z" stroke="#777" stroke-width="2" stroke-linecap="round" stroke-linejoin="round"/>
<path d="M217 120V124L220 127L217 120ZM226 124C226 128.971 221.971 133 217 133C212.029 133 208 128.971 208 124C208 119.029 212.029 115 217 115C221.971 115 226 119.029 226 124Z" stroke="#777" stroke-width="2" stroke-linecap="round" stroke-linejoin="round"/>
<path d="M209 176H225M209 168H225H209Z" stroke="#777" stroke-width="2" stroke-linecap="round" stroke-linejoin="round"/>
<path d="M216 211.055C211.5 211.552 208 215.367 208 220C208 224.971 212.029 229 217 229C221.633 229 225.448 225.5 225.945 221H216V211.055Z" stroke="#777" stroke-width="2" stroke-linecap="round" stroke-linejoin="round"/>
<path d="M225.488 217H220V211.512C222.557 212.416 224.584 214.443 225.488 217Z" stroke="#777" stroke-width="2" stroke-linecap="round" stroke-linejoin="round"/>
<path d="M209.318 262.318C207.561 264.075 207.561 266.925 209.318 268.682L217 276.364L224.682 268.682C226.439 266.925 226.439 264.075 224.682 262.318C222.925 260.561 220.075 260.561 218.318 262.318L217 263.636L215.682 262.318C213.925 260.561 211.075 260.561 209.318 262.318Z" stroke="#777" stroke-width="2" stroke-linecap="round" stroke-linejoin="round"/>
<path d="M226 311L218 319L214 315L208 321M218 311H226H218ZM226 311V319V311Z" stroke="#777" stroke-width="2" stroke-linecap="round" stroke-linejoin="round"/>
<path d="M218 361L221 364L218 361ZM221 364L218 367L221 364ZM221 364H213H221ZM226 364C226 368.971 221.971 373 217 373C212.029 373 208 368.971 208 364C208 359.029 212.029 355 217 355C221.971 355 226 359.029 226 364Z" stroke="#777" stroke-width="2" stroke-linecap="round" stroke-linejoin="round"/>
<path d="M220 412H214H220ZM226 412C226 416.971 221.971 421 217 421C212.029 421 208 416.971 208 412C208 407.029 212.029 403 217 403C221.971 403 226 407.029 226 412Z" stroke="#777" stroke-width="2" stroke-linecap="round" stroke-linejoin="round"/>
<path d="M209 466H225M209 454H225H209ZM209 458H225H209ZM209 462H225H209Z" stroke="#777" stroke-width="2" stroke-linecap="round" stroke-linejoin="round"/>
<path d="M214 504H220H214ZM215 504C216.657 504 218 505.343 218 507C218 508.657 216.657 510 215 510H214L217 513L215 504ZM214 507H220H214ZM226 508C226 512.971 221.971 517 217 517C212.029 517 208 512.971 208 508C208 503.029 212.029 499 217 499C221.971 499 226 503.029 226 508Z" stroke="#777" stroke-width="2" stroke-linecap="round" stroke-linejoin="round"/>
<path d="M213 556H213.01H213ZM217 556H217.01H217ZM221 556H221.01H221ZM226 556C226 560.971 221.971 565 217 565C212.029 565 208 560.971 208 556C208 551.029 212.029 547 217 547C221.971 547 226 551.029 226 556Z" stroke="#777" stroke-width="2" stroke-linecap="round" stroke-linejoin="round"/>
<path d="M273.618 21.9843C273.413 21.9947 273.207 22 273 22C269.927 22 267.123 20.8445 265 18.9443C262.877 20.8445 260.073 21.9998 257 21.9998C256.793 21.9998 256.587 21.9946 256.382 21.9842C256.133 22.9478 256 23.9584 256 25C256 30.5915 259.824 35.2898 265 36.622C270.176 35.2898 274 30.5915 274 25C274 23.9585 273.867 22.9479 273.618 21.9843Z" stroke="#777" stroke-width="2" stroke-linecap="round" stroke-linejoin="round"/>
<path d="M265 31H265.01M265 25V27V25Z" stroke="#777" stroke-width="2" stroke-linecap="round" stroke-linejoin="round"/>
<path d="M265 85H268M256 70L259 71L256 70ZM259 71L256 80C257.773 81.3334 260.229 81.3334 262.001 80L259 71ZM259 71L262 80L259 71ZM259 71L265 69L259 71ZM271 71L274 70L271 71ZM271 71L268 80C269.773 81.3334 272.229 81.3334 274.001 80L271 71ZM271 71L274 80L271 71ZM271 71L265 69L271 71ZM265 67V69V67ZM265 85V69V85ZM265 85H262H265Z" stroke="#777" stroke-width="2" stroke-linecap="round" stroke-linejoin="round"/>
<path d="M257 128L261.586 123.414C262.367 122.633 263.633 122.633 264.414 123.414L269 128H257ZM267 126L268.586 124.414C269.367 123.633 270.633 123.633 271.414 124.414L273 126H267ZM267 120H267.01H267ZM259 132H271C272.105 132 273 131.105 273 130V118C273 116.895 272.105 116 271 116H259C257.895 116 257 116.895 257 118V130C257 131.105 257.895 132 259 132Z" stroke="#777" stroke-width="2" stroke-linecap="round" stroke-linejoin="round"/>
<path d="M270 180L266 176M260 176V164V176ZM260 164L256 168L260 164ZM260 164L264 168L260 164ZM270 168V180V168ZM270 180L274 176L270 180Z" stroke="#777" stroke-width="2" stroke-linecap="round" stroke-linejoin="round"/>
<path d="M260 229H270C271.105 229 272 228.105 272 227V217.414C272 217.149 271.895 216.895 271.707 216.707L266.293 211.293C266.105 211.105 265.851 211 265.586 211H260C258.895 211 258 211.895 258 213V227C258 228.105 258.895 229 260 229Z" stroke="#777" stroke-width="2" stroke-linecap="round" stroke-linejoin="round"/>
<path d="M256.055 267H258C259.105 267 260 267.895 260 269V270C260 271.105 260.895 272 262 272C263.105 272 264 272.895 264 274V276.945L256.055 267ZM261 259.936V261.5C261 262.881 262.119 264 263.5 264H264C265.105 264 266 264.895 266 266C266 267.105 266.895 268 268 268C269.105 268 270 267.105 270 266C270 264.895 270.895 264 272 264H273.064L261 259.936ZM268 276.488V274C268 272.895 268.895 272 270 272H273.064L268 276.488ZM274 268C274 272.971 269.971 277 265 277C260.029 277 256 272.971 256 268C256 263.029 260.029 259 265 259C269.971 259 274 263.029 274 268Z" stroke="#777" stroke-width="2" stroke-linecap="round" stroke-linejoin="round"/>
<path d="M274 321L266 313L262 317L256 311M266 321H274H266ZM274 321V313V321Z" stroke="#777" stroke-width="2" stroke-linecap="round" stroke-linejoin="round"/>
<path d="M268 365L265 368L268 365ZM265 368L262 365L265 368ZM265 368V360V368ZM265 373C260.029 373 256 368.971 256 364C256 359.029 260.029 355 265 355C269.971 355 274 359.029 274 364C274 368.971 269.971 373 265 373Z" stroke="#777" stroke-width="2" stroke-linecap="round" stroke-linejoin="round"/>
<path d="M258.121 417.804C260.153 416.655 262.5 416 265 416C267.5 416 269.847 416.655 271.879 417.804H258.121ZM268 410C268 411.657 266.657 413 265 413C263.343 413 262 411.657 262 410C262 408.343 263.343 407 265 407C266.657 407 268 408.343 268 410ZM274 412C274 416.971 269.971 421 265 421C260.029 421 256 416.971 256 412C256 407.029 260.029 403 265 403C269.971 403 274 407.029 274 412Z" stroke="#777" stroke-width="2" stroke-linecap="round" stroke-linejoin="round"/>
<path d="M268 465C268 466.105 268.895 467 270 467H272C273.105 467 274 466.105 274 465V455C274 453.895 273.105 453 272 453H270C268.895 453 268 453.895 268 455M262 465V455V465ZM262 465C262 466.105 261.105 467 260 467H258C256.895 467 256 466.105 256 465V455C256 453.895 256.895 453 258 453H260C261.105 453 262 453.895 262 455V465ZM262 465C262 466.105 262.895 467 264 467H266C267.105 467 268 466.105 268 465H262ZM262 455C262 453.895 262.895 453 264 453H266C267.105 453 268 453.895 268 455H262ZM268 465V455V465Z" stroke="#777" stroke-width="2" stroke-linecap="round" stroke-linejoin="round"/>
<path d="M272 505L265 512L258 505" stroke="#777" stroke-width="2" stroke-linecap="round" stroke-linejoin="round"/>
<path d="M257 559H271M260 564L264 548L260 564ZM266 564L270 548L266 564ZM259 553H273H259Z" stroke="#777" stroke-width="2" stroke-linecap="round" stroke-linejoin="round"/>
<path d="M311.325 20.3173C311.751 18.5609 314.249 18.5609 314.675 20.3173C314.951 21.4519 316.251 21.9904 317.248 21.3828C318.791 20.4424 320.558 22.2087 319.617 23.7522C319.01 24.7492 319.548 26.0492 320.683 26.3246C322.439 26.751 322.439 29.249 320.683 29.6754C319.548 29.9508 319.01 31.2507 319.617 32.2478C320.558 33.7913 318.791 35.5576 317.248 34.6172C316.251 34.0096 314.951 34.5481 314.675 35.6827C314.249 37.4391 311.751 37.4391 311.325 35.6827C311.049 34.5481 309.749 34.0096 308.752 34.6172C307.209 35.5576 305.442 33.7913 306.383 32.2478C306.99 31.2507 306.452 29.9508 305.317 29.6754C303.561 29.249 303.561 26.751 305.317 26.3246C306.452 26.0492 306.99 24.7493 306.383 23.7522C305.442 22.2087 307.209 20.4424 308.752 21.3828C309.749 21.9904 311.049 21.4519 311.325 20.3173Z" stroke="#777" stroke-width="2" stroke-linecap="round" stroke-linejoin="round"/>
<path d="M316 28C316 29.6569 314.657 31 313 31C311.343 31 310 29.6569 310 28C310 26.3431 311.343 25 313 25C314.657 25 316 26.3431 316 28Z" stroke="#777" stroke-width="2" stroke-linecap="round" stroke-linejoin="round"/>
<path d="M312 69H307C305.895 69 305 69.8954 305 71V81.9999C305 83.1045 305.895 83.9999 307 83.9999H318C319.105 83.9999 320 83.1045 320 81.9999V77L312 69ZM318.586 67.5858C319.367 66.8047 320.633 66.8047 321.414 67.5858C322.195 68.3668 322.195 69.6332 321.414 70.4142L312.828 79H310V76.1716L318.586 67.5858Z" stroke="#777" stroke-width="2" stroke-linecap="round" stroke-linejoin="round"/>
<path d="M308 119H308.01H308ZM308 115H313C313.512 115 314.024 115.195 314.414 115.586L321.414 122.586C322.195 123.367 322.195 124.633 321.414 125.414L314.414 132.414C313.633 133.195 312.367 133.195 311.586 132.414L304.586 125.414C304.195 125.024 304 124.512 304 124V119C304 116.791 305.791 115 308 115Z" stroke="#777" stroke-width="2" stroke-linecap="round" stroke-linejoin="round"/>
<path d="M305 177L309 173M309 167H321H309ZM321 167L317 163L321 167ZM321 167L317 171L321 167ZM317 177H305H317ZM305 177L309 181L305 177Z" stroke="#777" stroke-width="2" stroke-linecap="round" stroke-linejoin="round"/>
<path d="M313 218V224V218ZM313 224L310 221L313 224ZM313 224L316 221L313 224ZM318 229H308C306.895 229 306 228.105 306 227V213C306 211.895 306.895 211 308 211H313.586C313.851 211 314.105 211.105 314.293 211.293L319.707 216.707C319.895 216.895 320 217.149 320 217.414V227C320 228.105 319.105 229 318 229Z" stroke="#777" stroke-width="2" stroke-linecap="round" stroke-linejoin="round"/>
<path d="M316.536 264.464C318.488 266.417 318.488 269.583 316.536 271.536V264.464ZM319.364 261.636C322.879 265.151 322.879 270.849 319.364 274.364V261.636ZM306.586 271H305C304.448 271 304 270.552 304 270V266C304 265.448 304.448 265 305 265H306.586L311.293 260.293C311.923 259.663 313 260.109 313 261V275C313 275.891 311.923 276.337 311.293 275.707L306.586 271Z" stroke="#777" stroke-width="2" stroke-linecap="round" stroke-linejoin="round"/>
<path d="M304 308C304 307.448 304.448 307 305 307H321C321.552 307 322 307.448 322 308V310.586C322 310.851 321.895 311.105 321.707 311.293L315.293 317.707C315.105 317.895 315 318.149 315 318.414V321L311 325V318.414C311 318.149 310.895 317.895 310.707 317.707L304.293 311.293C304.105 311.105 304 310.851 304 310.586V308Z" stroke="#777" stroke-width="2" stroke-linecap="round" stroke-linejoin="round"/>
<path d="M312 367L309 364L312 367ZM309 364L312 361L309 364ZM309 364H317H309ZM304 364C304 359.029 308.029 355 313 355C317.971 355 322 359.029 322 364C322 368.971 317.971 373 313 373C308.029 373 304 368.971 304 364Z" stroke="#777" stroke-width="2" stroke-linecap="round" stroke-linejoin="round"/>
<path d="M322 421L316 415L322 421ZM318 410C318 413.866 314.866 417 311 417C307.134 417 304 413.866 304 410C304 406.134 307.134 403 311 403C314.866 403 318 406.134 318 410Z" stroke="#777" stroke-width="2" stroke-linecap="round" stroke-linejoin="round"/>
<path d="M311 410H308M311 407V410V407ZM311 410V413V410ZM311 410H314H311Z" stroke="#777" stroke-width="2" stroke-linecap="round" stroke-linejoin="round"/>
<path d="M316.172 455L309.586 461.586C308.805 462.367 308.805 463.633 309.586 464.414C310.367 465.195 311.633 465.195 312.414 464.414L318.828 457.828C320.391 456.266 320.391 453.734 318.828 452.172C317.266 450.609 314.734 450.609 313.172 452.172L306.757 458.757C304.414 461.101 304.414 464.899 306.757 467.243C309.101 469.586 312.899 469.586 315.243 467.243L321.5 461" stroke="#777" stroke-width="2" stroke-linecap="round" stroke-linejoin="round"/>
<path d="M310 501L317 508L310 515" stroke="#777" stroke-width="2" stroke-linecap="round" stroke-linejoin="round"/>
<path d="M314 548C314 547.448 313.552 547 313 547C312.448 547 312 547.448 312 548H314ZM312 549C312 549.552 312.448 550 313 550C313.552 550 314 549.552 314 549H312ZM319 559C318.448 559 318 559.448 318 560C318 560.552 318.448 561 319 561V559ZM321 561C321.552 561 322 560.552 322 560C322 559.448 321.552 559 321 559V561ZM313 560V559C312.448 559 312 559.448 312 560H313ZM315 561C315.552 561 316 560.552 316 560C316 559.448 315.552 559 315 559V561ZM312 564C312 564.552 312.448 565 313 565C313.552 565 314 564.552 314 564H312ZM314 553C314 552.448 313.552 552 313 552C312.448 552 312 552.448 312 553H314ZM313 556H312C312 556.552 312.448 557 313 557V556ZM317 563C316.448 563 316 563.448 316 564C316 564.552 316.448 565 317 565V563ZM321 565C321.552 565 322 564.552 322 564C322 563.448 321.552 563 321 563V565ZM305 555C304.448 555 304 555.448 304 556C304 556.552 304.448 557 305 557V555ZM309 557C309.552 557 310 556.552 310 556C310 555.448 309.552 555 309 555V557ZM313.01 557C313.562 557 314.01 556.552 314.01 556C314.01 555.448 313.562 555 313.01 555V557ZM317.01 557C317.562 557 318.01 556.552 318.01 556C318.01 555.448 317.562 555 317.01 555V557ZM321 555C320.448 555 320 555.448 320 556C320 556.552 320.448 557 321 557V555ZM321.01 557C321.562 557 322.01 556.552 322.01 556C322.01 555.448 321.562 555 321.01 555V557ZM306 549H308V547H306V549ZM308 549V551H310V549H308ZM308 551H306V553H308V551ZM306 551V549H304V551H306ZM306 551H304C304 552.105 304.895 553 306 553V551ZM308 551V553C309.105 553 310 552.105 310 551H308ZM308 549H310C310 547.895 309.105 547 308 547V549ZM306 547C304.895 547 304 547.895 304 549H306V547ZM318 549H320V547H318V549ZM320 549V551H322V549H320ZM320 551H318V553H320V551ZM318 551V549H316V551H318ZM318 551H316C316 552.105 316.895 553 318 553V551ZM320 551V553C321.105 553 322 552.105 322 551H320ZM320 549H322C322 547.895 321.105 547 320 547V549ZM318 547C316.895 547 316 547.895 316 549H318V547ZM306 561H308V559H306V561ZM308 561V563H310V561H308ZM308 563H306V565H308V563ZM306 563V561H304V563H306ZM306 563H304C304 564.105 304.895 565 306 565V563ZM308 563V565C309.105 565 310 564.105 310 563H308ZM308 561H310C310 559.895 309.105 559 308 559V561ZM306 559C304.895 559 304 559.895 304 561H306V559ZM312 548V549H314V548H312ZM319 561H321V559H319V561ZM313 561H315V559H313V561ZM312 560V564H314V560H312ZM312 553V556H314V553H312ZM317 565H321V563H317V565ZM305 557H309V555H305V557ZM313 557H313.01V555H313V557ZM321 557H321.01V555H321V557ZM313 557H317.01V555H313V557Z" fill="#777"/>
<path d="M354 29L358 33L368 23" stroke="#777" stroke-width="2" stroke-linecap="round" stroke-linejoin="round"/>
<path d="M369.268 67.7322L369.975 67.0251L369.268 67.7322ZM355.5 85.0355V86.0355C355.765 86.0355 356.02 85.9301 356.207 85.7426L355.5 85.0355ZM352 85.0355H351C351 85.5878 351.448 86.0355 352 86.0355V85.0355ZM352 81.4644L351.293 80.7573C351.105 80.9448 351 81.1992 351 81.4644H352ZM366.439 68.4393C367.025 67.8536 367.975 67.8536 368.561 68.4393L369.975 67.0251C368.608 65.6583 366.392 65.6583 365.025 67.0251L366.439 68.4393ZM368.561 68.4393C369.146 69.0251 369.146 69.9749 368.561 70.5607L369.975 71.9749C371.342 70.608 371.342 68.392 369.975 67.0251L368.561 68.4393ZM368.561 70.5607L354.793 84.3284L356.207 85.7426L369.975 71.9749L368.561 70.5607ZM355.5 84.0355H352V86.0355H355.5V84.0355ZM365.025 67.0251L351.293 80.7573L352.707 82.1715L366.439 68.4393L365.025 67.0251ZM351 81.4644V85.0355H353V81.4644H351ZM363.525 69.9393L367.061 73.4749L368.475 72.0607L364.939 68.5251L363.525 69.9393Z" fill="#777"/>
<path d="M358.228 115.684L357.279 116L358.228 115.684ZM359.726 120.177L358.777 120.493L359.726 120.177ZM359.224 121.388L359.671 122.282L359.224 121.388ZM356.967 122.516L356.52 121.622C356.04 121.862 355.835 122.438 356.055 122.928L356.967 122.516ZM362.484 128.033L362.072 128.945C362.562 129.165 363.138 128.96 363.378 128.48L362.484 128.033ZM363.612 125.776L362.718 125.329L363.612 125.776ZM364.823 125.274L364.507 126.223L364.823 125.274ZM369.316 126.772L369.632 125.823L369.316 126.772ZM354 114C352.343 114 351 115.343 351 117H353C353 116.448 353.448 116 354 116V114ZM357.279 114H354V116H357.279V114ZM359.177 115.367C358.904 114.551 358.14 114 357.279 114V116L359.177 115.367ZM360.674 119.861L359.177 115.367L357.279 116L358.777 120.493L360.674 119.861ZM359.671 122.282C360.562 121.837 360.989 120.805 360.674 119.861L358.777 120.493L359.671 122.282ZM357.414 123.411L359.671 122.282L358.777 120.493L356.52 121.622L357.414 123.411ZM362.895 127.121C360.672 126.119 358.881 124.328 357.879 122.105L356.055 122.928C357.258 125.595 359.405 127.742 362.072 128.945L362.895 127.121ZM362.718 125.329L361.589 127.586L363.378 128.48L364.507 126.223L362.718 125.329ZM365.139 124.326C364.195 124.011 363.163 124.438 362.718 125.329L364.507 126.223L365.139 124.326ZM369.632 125.823L365.139 124.326L364.507 126.223L369 127.721L369.632 125.823ZM371 127.721C371 126.86 370.449 126.096 369.632 125.823L369 127.721H371ZM371 131V127.721H369V131H371ZM368 134C369.657 134 371 132.657 371 131H369C369 131.552 368.552 132 368 132V134ZM367 134H368V132H367V134ZM351 118C351 126.837 358.163 134 367 134V132C359.268 132 353 125.732 353 118H351ZM351 117V118H353V117H351Z" fill="#777"/>
<path d="M355 166L367 178M355 178L367 166L355 178Z" stroke="#777" stroke-width="2" stroke-linecap="round" stroke-linejoin="round"/>
<path d="M358 221H364H358ZM361 218V224V218ZM366 229H356C354.895 229 354 228.105 354 227V213C354 211.895 354.895 211 356 211H361.586C361.851 211 362.105 211.105 362.293 211.293L367.707 216.707C367.895 216.895 368 217.149 368 217.414V227C368 228.105 367.105 229 366 229Z" stroke="#777" stroke-width="2" stroke-linecap="round" stroke-linejoin="round"/>
<path fill-rule="evenodd" clip-rule="evenodd" d="M354.586 271H353C352.448 271 352 270.552 352 270V266C352 265.448 352.448 265 353 265H354.586L359.293 260.293C359.923 259.663 361 260.109 361 261V275C361 275.891 359.923 276.337 359.293 275.707L354.586 271Z" stroke="#777" stroke-width="2" stroke-linecap="round" stroke-linejoin="round"/>
<path d="M368 268L370 270M366 270L368 268L366 270ZM368 268L370 266L368 268ZM368 268L366 266L368 268Z" stroke="#777" stroke-width="2" stroke-linecap="round" stroke-linejoin="round"/>
<path d="M365.5 323.794C364.08 324.614 362.53 325.003 361 325.001M365 316C365 313.791 363.209 312 361 312C358.791 312 357 313.791 357 316C357 318.209 358.791 320 361 320C363.209 320 365 318.209 365 316ZM365 316V317.5C365 318.881 366.119 320 367.5 320C368.881 320 370 318.881 370 317.5V316C370 311.029 365.971 307 361 307C356.029 307 352 311.029 352 316C352 320.971 356.029 325 361 325L365 316Z" stroke="#777" stroke-width="2" stroke-linecap="round" stroke-linejoin="round"/>
<path d="M358 363L361 360L358 363ZM361 360L364 363L361 360ZM361 360V368V360ZM361 355C365.971 355 370 359.029 370 364C370 368.971 365.971 373 361 373C356.029 373 352 368.971 352 364C352 359.029 356.029 355 361 355Z" stroke="#777" stroke-width="2" stroke-linecap="round" stroke-linejoin="round"/>
<path d="M370 421L364 415L370 421ZM366 410C366 413.866 362.866 417 359 417C355.134 417 352 413.866 352 410C352 406.134 355.134 403 359 403C362.866 403 366 406.134 366 410Z" stroke="#777" stroke-width="2" stroke-linecap="round" stroke-linejoin="round"/>
<path d="M362 410H356" stroke="#777" stroke-width="2" stroke-linecap="round" stroke-linejoin="round"/>
<path d="M363.828 462.828C362.266 464.391 359.734 464.391 358.172 462.828H363.828ZM358 458H358.01H358ZM364 458H364.01H364ZM370 460C370 464.971 365.971 469 361 469C356.029 469 352 464.971 352 460C352 455.029 356.029 451 361 451C365.971 451 370 455.029 370 460Z" stroke="#777" stroke-width="2" stroke-linecap="round" stroke-linejoin="round"/>
<path d="M354 511L361 504L368 511" stroke="#777" stroke-width="2" stroke-linecap="round" stroke-linejoin="round"/>
<path d="M358.707 557.293C358.317 556.902 357.683 556.902 357.293 557.293C356.902 557.683 356.902 558.317 357.293 558.707L358.707 557.293ZM360 560L359.293 560.707C359.683 561.098 360.317 561.098 360.707 560.707L360 560ZM364.707 556.707C365.098 556.317 365.098 555.683 364.707 555.293C364.317 554.902 363.683 554.902 363.293 555.293L364.707 556.707ZM367 551V563H369V551H367ZM366 564H356V566H366V564ZM355 563V551H353V563H355ZM356 550H358V548H356V550ZM364 550H366V548H364V550ZM356 564C355.448 564 355 563.552 355 563H353C353 564.657 354.343 566 356 566V564ZM367 563C367 563.552 366.552 564 366 564V566C367.657 566 369 564.657 369 563H367ZM369 551C369 549.343 367.657 548 366 548V550C366.552 550 367 550.448 367 551H369ZM355 551C355 550.448 355.448 550 356 550V548C354.343 548 353 549.343 353 551H355ZM357.293 558.707L359.293 560.707L360.707 559.293L358.707 557.293L357.293 558.707ZM360.707 560.707L364.707 556.707L363.293 555.293L359.293 559.293L360.707 560.707ZM360 548H362V546H360V548ZM362 550H360V552H362V550ZM360 550C359.448 550 359 549.552 359 549H357C357 550.657 358.343 552 360 552V550ZM363 549C363 549.552 362.552 550 362 550V552C363.657 552 365 550.657 365 549H363ZM362 548C362.552 548 363 548.448 363 549H365C365 547.343 363.657 546 362 546V548ZM360 546C358.343 546 357 547.343 357 549H359C359 548.448 359.448 548 360 548V546Z" fill="#777"/>
<path d="M409.751 21C408.783 26.7702 405.07 31.6095 400 34.129M400 21H412H400ZM406 19V21V19ZM407.048 30.5C405.521 28.9178 404.281 27.0565 403.412 25L407.048 30.5ZM409.5 34H416.5H409.5ZM408 37L413 27L418 37H408Z" stroke="#777" stroke-width="2" stroke-linecap="round" stroke-linejoin="round"/>
<path d="M412 76C412 77.6569 410.657 79 409 79C407.343 79 406 77.6569 406 76C406 74.3431 407.343 73 409 73C410.657 73 412 74.3431 412 76Z" stroke="#777" stroke-width="2" stroke-linecap="round" stroke-linejoin="round"/>
<path d="M399.458 76C400.733 71.9429 404.523 69 409 69C413.478 69 417.268 71.9429 418.543 76C417.268 80.0571 413.478 83 409 83C404.523 83 400.733 80.0571 399.458 76Z" stroke="#777" stroke-width="2" stroke-linecap="round" stroke-linejoin="round"/>
<path d="M413 115H418H413ZM418 115V120V115ZM418 115L412 121L418 115ZM402 115C400.895 115 400 115.895 400 117V118C400 126.284 406.716 133 415 133H416C417.105 133 418 132.105 418 131V127.721C418 127.29 417.725 126.908 417.316 126.772L412.823 125.274C412.351 125.117 411.835 125.331 411.612 125.776L410.484 128.033C408.039 126.931 406.069 124.961 404.967 122.516L407.224 121.388C407.669 121.165 407.883 120.649 407.726 120.177L406.228 115.684C406.092 115.275 405.71 115 405.279 115H402Z" stroke="#777" stroke-width="2" stroke-linecap="round" stroke-linejoin="round"/>
<path d="M417 172H401M409 164V180V164Z" stroke="#777" stroke-width="2" stroke-linecap="round" stroke-linejoin="round"/>
<path d="M406 221H412H406ZM414 229H404C402.895 229 402 228.105 402 227V213C402 211.895 402.895 211 404 211H409.586C409.851 211 410.105 211.105 410.293 211.293L415.707 216.707C415.895 216.895 416 217.149 416 217.414V227C416 228.105 415.105 229 414 229Z" stroke="#777" stroke-width="2" stroke-linecap="round" stroke-linejoin="round"/>
<path d="M415 270V260M409 262V260V262ZM409 262C407.895 262 407 262.895 407 264C407 265.105 407.895 266 409 266V262ZM409 262C410.105 262 411 262.895 411 264C411 265.105 410.105 266 409 266V262ZM403 274C404.105 274 405 273.105 405 272C405 270.895 404.105 270 403 270V274ZM403 274C401.895 274 401 273.105 401 272C401 270.895 401.895 270 403 270V274ZM403 274V276V274ZM403 270V260V270ZM409 266V276V266ZM415 274C416.105 274 417 273.105 417 272C417 270.895 416.105 270 415 270V274ZM415 274C413.895 274 413 273.105 413 272C413 270.895 413.895 270 415 270V274ZM415 274V276V274Z" stroke="#777" stroke-width="2" stroke-linecap="round" stroke-linejoin="round"/>
<path d="M401 311H417M416 311L415.133 323.142C415.058 324.189 414.187 325 413.138 325H404.862C403.813 325 402.942 324.189 402.867 323.142L402 311H416ZM407 315V321V315ZM411 315V321V315ZM412 311V308C412 307.448 411.552 307 411 307H407C406.448 307 406 307.448 406 308V311H412Z" stroke="#777" stroke-width="2" stroke-linecap="round" stroke-linejoin="round"/>
<path d="M414 360V372M400 356H413H400ZM400 360H409H400ZM400 364H406H400ZM410 364L414 360L410 364ZM414 360L418 364L414 360Z" stroke="#777" stroke-width="2" stroke-linecap="round" stroke-linejoin="round"/>
<path d="M418 421L412 415L418 421ZM414 410C414 413.866 410.866 417 407 417C403.134 417 400 413.866 400 410C400 406.134 403.134 403 407 403C410.866 403 414 406.134 414 410Z" stroke="#777" stroke-width="2" stroke-linecap="round" stroke-linejoin="round"/>
<path d="M406.172 464.172C407.734 462.61 410.266 462.61 411.828 464.172H406.172ZM406 458H406.01H406ZM412 458H412.01H412ZM418 460C418 464.971 413.971 469 409 469C404.029 469 400 464.971 400 460C400 455.029 404.029 451 409 451C413.971 451 418 455.029 418 460Z" stroke="#777" stroke-width="2" stroke-linecap="round" stroke-linejoin="round"/>
<path d="M412 515L405 508L412 501" stroke="#777" stroke-width="2" stroke-linecap="round" stroke-linejoin="round"/>
<path d="M409 555C408.448 555 408 555.448 408 556C408 556.552 408.448 557 409 557V555ZM412 557C412.552 557 413 556.552 413 556C413 555.448 412.552 555 412 555V557ZM409 559C408.448 559 408 559.448 408 560C408 560.552 408.448 561 409 561V559ZM412 561C412.552 561 413 560.552 413 560C413 559.448 412.552 559 412 559V561ZM406 555C405.448 555 405 555.448 405 556C405 556.552 405.448 557 406 557V555ZM406.01 557C406.562 557 407.01 556.552 407.01 556C407.01 555.448 406.562 555 406.01 555V557ZM406 559C405.448 559 405 559.448 405 560C405 560.552 405.448 561 406 561V559ZM406.01 561C406.562 561 407.01 560.552 407.01 560C407.01 559.448 406.562 559 406.01 559V561ZM415 551V563H417V551H415ZM414 564H404V566H414V564ZM403 563V551H401V563H403ZM404 550H406V548H404V550ZM412 550H414V548H412V550ZM404 564C403.448 564 403 563.552 403 563H401C401 564.657 402.343 566 404 566V564ZM415 563C415 563.552 414.552 564 414 564V566C415.657 566 417 564.657 417 563H415ZM417 551C417 549.343 415.657 548 414 548V550C414.552 550 415 550.448 415 551H417ZM403 551C403 550.448 403.448 550 404 550V548C402.343 548 401 549.343 401 551H403ZM409 557H412V555H409V557ZM409 561H412V559H409V561ZM408 548H410V546H408V548ZM410 550H408V552H410V550ZM408 550C407.448 550 407 549.552 407 549H405C405 550.657 406.343 552 408 552V550ZM411 549C411 549.552 410.552 550 410 550V552C411.657 552 413 550.657 413 549H411ZM410 548C410.552 548 411 548.448 411 549H413C413 547.343 411.657 546 410 546V548ZM408 546C406.343 546 405 547.343 405 549H407C407 548.448 407.448 548 408 548V546ZM406 557H406.01V555H406V557ZM406 561H406.01V559H406V561Z" fill="#777"/>
<path d="M462 25V23C462 21.8954 461.105 21 460 21H450C448.895 21 448 21.8954 448 23V29C448 30.1046 448.895 31 450 31H452L462 25ZM454 35H464C465.105 35 466 34.1046 466 33V27C466 25.8954 465.105 25 464 25H454C452.895 25 452 25.8954 452 27V33C452 34.1046 452.895 35 454 35ZM461 30C461 31.1046 460.105 32 459 32C457.895 32 457 31.1046 457 30C457 28.8954 457.895 28 459 28C460.105 28 461 28.8954 461 30Z" stroke="#777" stroke-width="2" stroke-linecap="round" stroke-linejoin="round"/>
<path d="M450 69C450 67.8954 450.895 67 452 67H462C463.105 67 464 67.8954 464 69V85L457 81.5L450 85V69Z" stroke="#777" stroke-width="2" stroke-linecap="round" stroke-linejoin="round"/>
<path d="M466 115L460 121L466 115ZM460 121V116V121ZM460 121H465H460ZM450 115C448.895 115 448 115.895 448 117V118C448 126.284 454.716 133 463 133H464C465.105 133 466 132.105 466 131V127.721C466 127.29 465.725 126.908 465.316 126.772L460.823 125.274C460.351 125.117 459.835 125.331 459.612 125.776L458.484 128.033C456.039 126.931 454.069 124.961 452.967 122.516L455.224 121.388C455.669 121.165 455.883 120.649 455.726 120.177L454.228 115.684C454.092 115.275 453.71 115 453.279 115H450Z" stroke="#777" stroke-width="2" stroke-linecap="round" stroke-linejoin="round"/>
<path d="M464.418 175H460M449 164V169H449.582L449 164ZM464.938 171C464.446 167.054 461.08 164 457 164C453.643 164 450.768 166.068 449.582 169L464.938 171ZM449.582 169H454H449.582ZM465 180V175H464.418L465 180ZM464.418 175C463.232 177.932 460.357 180 457 180C452.92 180 449.554 176.946 449.062 173L464.418 175Z" stroke="#777" stroke-width="2" stroke-linecap="round" stroke-linejoin="round"/>
<path d="M453 215V211V215ZM461 215V211V215ZM452 219H462H452ZM450 229H464C465.105 229 466 228.105 466 227V215C466 213.895 465.105 213 464 213H450C448.895 213 448 213.895 448 215V227C448 228.105 448.895 229 450 229Z" stroke="#777" stroke-width="2" stroke-linecap="round" stroke-linejoin="round"/>
<path d="M455.172 269.828C456.734 271.391 459.266 271.391 460.828 269.828L464.828 265.828C466.391 264.266 466.391 261.734 464.828 260.172C463.266 258.609 460.734 258.609 459.172 260.172L458.072 261.271M458.828 266.172C457.266 264.609 454.734 264.609 453.172 266.172L449.172 270.172C447.609 271.734 447.609 274.266 449.172 275.828C450.734 277.391 453.266 277.391 454.828 275.828L455.93 274.727L458.828 266.172Z" stroke="#777" stroke-width="2" stroke-linecap="round" stroke-linejoin="round"/>
<path d="M458 320H457V316H456L458 320ZM457 312H457.01H457ZM466 316C466 320.971 461.971 325 457 325C452.029 325 448 320.971 448 316C448 311.029 452.029 307 457 307C461.971 307 466 311.029 466 316Z" stroke="#777" stroke-width="2" stroke-linecap="round" stroke-linejoin="round"/>
<path d="M462 372L466 368M448 356H461H448ZM448 360H457H448ZM448 364H457H448ZM462 360V372V360ZM462 372L458 368L462 372Z" stroke="#777" stroke-width="2" stroke-linecap="round" stroke-linejoin="round"/>
<path d="M463 409V412V409ZM463 412V415V412ZM463 412H466H463ZM463 412H460H463ZM458 407C458 409.209 456.209 411 454 411C451.791 411 450 409.209 450 407C450 404.791 451.791 403 454 403C456.209 403 458 404.791 458 407ZM448 420C448 416.686 450.686 414 454 414C457.314 414 460 416.686 460 420V421H448V420Z" stroke="#777" stroke-width="2" stroke-linecap="round" stroke-linejoin="round"/>
<path d="M462 465H464C465.105 465 466 464.105 466 463V459C466 457.895 465.105 457 464 457H450C448.895 457 448 457.895 448 459V463C448 464.105 448.895 465 450 465H452H462ZM454 469H460C461.105 469 462 468.105 462 467V463C462 461.895 461.105 461 460 461H454C452.895 461 452 461.895 452 463V467C452 468.105 452.895 469 454 469ZM462 457V453C462 451.895 461.105 451 460 451H454C452.895 451 452 451.895 452 453V457H462Z" stroke="#777" stroke-width="2" stroke-linecap="round" stroke-linejoin="round"/>
<path d="M461 511L457 515L453 511M453 505L457 501L461 505H453Z" stroke="#777" stroke-width="2" stroke-linecap="round" stroke-linejoin="round"/>
<path d="M463 551V563H465V551H463ZM462 564H452V566H462V564ZM451 563V551H449V563H451ZM452 550H454V548H452V550ZM460 550H462V548H460V550ZM452 564C451.448 564 451 563.552 451 563H449C449 564.657 450.343 566 452 566V564ZM463 563C463 563.552 462.552 564 462 564V566C463.657 566 465 564.657 465 563H463ZM465 551C465 549.343 463.657 548 462 548V550C462.552 550 463 550.448 463 551H465ZM451 551C451 550.448 451.448 550 452 550V548C450.343 548 449 549.343 449 551H451ZM456 548H458V546H456V548ZM458 550H456V552H458V550ZM456 550C455.448 550 455 549.552 455 549H453C453 550.657 454.343 552 456 552V550ZM459 549C459 549.552 458.552 550 458 550V552C459.657 552 461 550.657 461 549H459ZM458 548C458.552 548 459 548.448 459 549H461C461 547.343 459.657 546 458 546V548ZM456 546C454.343 546 453 547.343 453 549H455C455 548.448 455.448 548 456 548V546Z" fill="#777"/>
<path d="M513 20L503 30M503 22H499C497.895 22 497 22.895 497 24V34C497 35.105 497.895 36 499 36H509C510.105 36 511 35.105 511 34V30L503 22ZM507 20H513H507ZM513 20V26V20Z" stroke="#777" stroke-width="2" stroke-linecap="round" stroke-linejoin="round"/>
<path d="M496 71V81C496 82.105 496.895 83 498 83H512C513.105 83 514 82.105 514 81V73C514 71.895 513.105 71 512 71H506L504 69H498C496.895 69 496 69.895 496 71Z" stroke="#777" stroke-width="2" stroke-linecap="round" stroke-linejoin="round"/>
<path d="M553 19V20V19ZM553 36V37V36ZM562 28H561H562ZM545 28H544H545ZM559.364 34.364L558.657 33.657L559.364 34.364ZM547.343 22.343L546.636 21.636L547.343 22.343ZM559.364 21.636L558.657 22.343L559.364 21.636ZM547.343 33.657L546.636 34.364L547.343 33.657ZM557 28C557 30.209 555.209 32 553 32C550.791 32 549 30.209 549 28C549 25.791 550.791 24 553 24C555.209 24 557 25.791 557 28Z" stroke="#777" stroke-width="2" stroke-linecap="round" stroke-linejoin="round"/>
<path d="M546 67V71V67ZM544 69H548H544ZM547 81V85V81ZM545 83H549H545ZM554 67L556.286 73.857L562 76L556.286 78.143L554 85L551.714 78.143L546 76L551.714 73.857L554 67Z" stroke="#777" stroke-width="2" stroke-linecap="round" stroke-linejoin="round"/>
<path d="M500 264H510H500ZM500 268H504H500ZM505 276L501 272H498C496.895 272 496 271.105 496 270V262C496 260.895 496.895 260 498 260H512C513.105 260 514 260.895 514 262V270C514 271.105 513.105 272 512 272H509L505 276Z" stroke="#777" stroke-width="2" stroke-linecap="round" stroke-linejoin="round"/>
<path d="M514 316H496M510 312L514 316L510 312ZM514 316L510 320L514 316Z" stroke="#777" stroke-width="2" stroke-linecap="round" stroke-linejoin="round"/>
<path d="M553 259.5V265M544 277V273V277ZM544 273V261C544 259.895 544.895 259 546 259H552.5L553.5 260H562L559 266L562 272H553.5L552.5 271H546C544.895 271 544 271.895 544 273Z" stroke="#777" stroke-width="2" stroke-linecap="round" stroke-linejoin="round"/>
<path d="M553 325V307M557 321L553 325L557 321ZM553 325L549 321L553 325Z" stroke="#777" stroke-width="2" stroke-linecap="round" stroke-linejoin="round"/>
<path d="M499 512L495 508L499 504M503 516L507 500L503 516ZM511 504L515 508L511 512V504Z" stroke="#777" stroke-width="2" stroke-linecap="round" stroke-linejoin="round"/>
<path d="M496 554H506C510.418 554 514 557.582 514 562V564L496 554ZM496 554L502 560M496 554L502 548" stroke="#777" stroke-width="2" stroke-linecap="round" stroke-linejoin="round"/>
<path d="M554 506V499L545 510H552V517L561 506H554Z" stroke="#777" stroke-width="2" stroke-linecap="round" stroke-linejoin="round"/>
<path d="M550.663 561H555.336H550.663ZM553 547V548V547ZM559.364 549.636L558.657 550.343L559.364 549.636ZM562 556H561H562ZM545 556H544H545ZM547.343 550.343L546.636 549.636L547.343 550.343ZM549.464 559.536C547.512 557.583 547.512 554.417 549.464 552.464C551.417 550.512 554.583 550.512 556.535 552.464C558.488 554.417 558.488 557.583 556.535 559.536L555.988 560.083C555.355 560.716 555 561.574 555 562.469V563C555 564.105 554.105 565 553 565C551.895 565 551 564.105 551 563V562.469C551 561.574 550.644 560.716 550.012 560.083L549.464 559.536Z" stroke="#777" stroke-width="2" stroke-linecap="round" stroke-linejoin="round"/>
<path d="M544 355H546L546.4 357L544 355ZM548 365H558L562 357H546.4L548 365ZM548 365L546.4 357L548 365ZM548 365L545.707 367.293C545.077 367.923 545.523 369 546.414 369H558L548 365ZM558 369C556.895 369 556 369.895 556 371C556 372.105 556.895 373 558 373C559.105 373 560 372.105 560 371C560 369.895 559.105 369 558 369ZM550 371C550 372.105 549.105 373 548 373C546.895 373 546 372.105 546 371C546 369.895 546.895 369 548 369C549.105 369 550 369.895 550 371Z" stroke="#777" stroke-width="2" stroke-linecap="round" stroke-linejoin="round"/>
<path d="M550 129V127V129ZM553 129V125V129ZM556 129V123V129ZM558 133H548C546.895 133 546 132.105 546 131V117C546 115.895 546.895 115 548 115H553.586C553.851 115 554.105 115.105 554.293 115.293L559.707 120.707C559.895 120.895 560 121.149 560 121.414V131C560 132.105 559.105 133 558 133Z" stroke="#777" stroke-width="2" stroke-linecap="round" stroke-linejoin="round"/>
<path d="M511.364 370.364L498.636 357.636M511.364 370.364C514.879 366.849 514.879 361.151 511.364 357.636C507.849 354.121 502.151 354.121 498.636 357.636L511.364 370.364ZM511.364 370.364C507.849 373.879 502.151 373.879 498.636 370.364C495.121 366.849 495.121 361.151 498.636 357.636L511.364 370.364Z" stroke="#777" stroke-width="2" stroke-linecap="round" stroke-linejoin="round"/>
<path d="M501 122H501.01H501ZM505 122H505.01H505ZM509 122H509.01H509ZM502 128H498C496.895 128 496 127.105 496 126V118C496 116.895 496.895 116 498 116H512C513.105 116 514 116.895 514 118V126C514 127.105 513.105 128 512 128H507L502 133V128Z" stroke="#777" stroke-width="2" stroke-linecap="round" stroke-linejoin="round"/>
<path d="M509 404V416L505 414L501 416V404H509ZM499 420H511C512.105 420 513 419.105 513 418V406C513 404.895 512.105 404 511 404H499C497.895 404 497 404.895 497 406V418C497 419.105 497.895 420 499 420Z" stroke="#777" stroke-width="2" stroke-linecap="round" stroke-linejoin="round"/>
<path d="M558 414V420V414ZM555 417H561H555ZM547 410H549C550.105 410 551 409.105 551 408V406C551 404.895 550.105 404 549 404H547C545.895 404 545 404.895 545 406V408C545 409.105 545.895 410 547 410ZM557 410H559C560.105 410 561 409.105 561 408V406C561 404.895 560.105 404 559 404H557C555.895 404 555 404.895 555 406V408C555 409.105 555.895 410 557 410ZM547 420H549C550.105 420 551 419.105 551 418V416C551 414.895 550.105 414 549 414H547C545.895 414 545 414.895 545 416V418C545 419.105 545.895 420 547 420Z" stroke="#777" stroke-width="2" stroke-linecap="round" stroke-linejoin="round"/>
<path d="M502 467V461C502 459.895 501.105 459 500 459H498C496.895 459 496 459.895 496 461V467C496 468.105 496.895 469 498 469H500C501.105 469 502 468.105 502 467ZM502 467V457C502 455.895 502.895 455 504 455H506C507.105 455 508 455.895 508 457V467H502ZM502 467C502 468.105 502.895 469 504 469H506C507.105 469 508 468.105 508 467H502ZM508 467V453C508 451.895 508.895 451 510 451H512C513.105 451 514 451.895 514 453V467C514 468.105 513.105 469 512 469H510C508.895 469 508 468.105 508 467Z" stroke="#777" stroke-width="2" stroke-linecap="round" stroke-linejoin="round"/>
<path d="M549 217L552 220L549 223V217ZM554 223H557H554ZM546 228H560C561.105 228 562 227.105 562 226V214C562 212.895 561.105 212 560 212H546C544.895 212 544 212.895 544 214V226C544 227.105 544.895 228 546 228Z" stroke="#777" stroke-width="2" stroke-linecap="round" stroke-linejoin="round"/>
<path d="M504.049 210.927C504.348 210.005 505.652 210.005 505.951 210.927L507.47 215.601C507.604 216.013 507.988 216.291 508.421 216.291L513.335 216.292C514.304 216.292 514.707 217.531 513.923 218.101L509.947 220.989C509.597 221.244 509.45 221.695 509.584 222.107L511.103 226.781C511.402 227.703 510.347 228.469 509.564 227.9L505.588 225.011C505.237 224.756 504.763 224.756 504.412 225.011L500.436 227.9C499.653 228.469 498.598 227.703 498.897 226.781L500.416 222.107C500.55 221.695 500.403 221.244 500.053 220.989L496.077 218.101C495.293 217.531 495.696 216.292 496.665 216.292L501.579 216.291C502.012 216.291 502.396 216.013 502.53 215.601L504.049 210.927Z" stroke="#777" stroke-width="2"/>
<path d="M502.75 177L502 180L501 181H509L508 180L507.25 177H502.75ZM496 173H514H496ZM498 177H512C513.105 177 514 176.105 514 175V165C514 163.895 513.105 163 512 163H498C496.895 163 496 163.895 496 165V175C496 176.105 496.895 177 498 177Z" stroke="#777" stroke-width="2" stroke-linecap="round" stroke-linejoin="round"/>
<path d="M558 168H560C561.105 168 562 168.895 562 170V176C562 177.105 561.105 178 560 178H558V182L554 178H550C549.448 178 548.948 177.776 548.586 177.414L558 168ZM548.586 177.414L552 174H556C557.105 174 558 173.105 558 172V166C558 164.895 557.105 164 556 164H546C544.895 164 544 164.895 544 166V172C544 173.105 544.895 174 546 174H548V178L548.586 177.414Z" stroke="#777" stroke-width="2" stroke-linecap="round" stroke-linejoin="round"/>
<path d="M558.657 466.657C555.533 469.781 550.467 469.781 547.343 466.657C545.781 465.095 545 463.047 545 461C545 458.953 545.781 456.905 547.343 455.343C547.343 455.343 548 457 550 458C550 456 550.5 453 552.986 451C555 453 557.091 453.777 558.657 455.343C560.219 456.905 561 458.953 561 461C561 463.047 560.219 465.095 558.657 466.657Z" stroke="#777" stroke-width="2" stroke-linecap="round" stroke-linejoin="round"/>
<path d="M550.879 464.121C552.05 465.293 553.95 465.293 555.121 464.121C555.707 463.535 556 462.768 556 462C556 461.232 555.707 460.464 555.121 459.879C554.539 459.297 553.777 459.004 553.015 459L552 462H550C550 462.768 550.293 463.535 550.879 464.121Z" stroke="#777" stroke-width="2" stroke-linecap="round" stroke-linejoin="round"/>
</svg>
