<?xml version="1.0" standalone="no"?>
<!DOCTYPE svg PUBLIC "-//W3C//DTD SVG 20010904//EN"
 "http://www.w3.org/TR/2001/REC-SVG-20010904/DTD/svg10.dtd">
<svg version="1.0" xmlns="http://www.w3.org/2000/svg"
 width="1496.000000pt" height="1496.000000pt" viewBox="0 0 1496.000000 1496.000000"
 preserveAspectRatio="xMidYMid meet">
<metadata>
Created by potrace 1.11, written by Peter Selinger 2001-2013
</metadata>
<g transform="translate(0.000000,1496.000000) scale(0.100000,-0.100000)"
fill="#000000" stroke="none">
<path d="M8895 14946 c-11 -7 -42 -26 -70 -41 -27 -16 -66 -38 -85 -50 -19
-12 -37 -22 -40 -22 -3 0 -30 -16 -60 -35 -30 -19 -62 -38 -70 -41 -8 -4 -28
-16 -45 -26 -27 -16 -514 -302 -610 -357 -43 -25 -120 -69 -163 -94 -15 -9
-71 -41 -124 -73 -53 -31 -102 -57 -107 -57 -6 0 -11 -4 -11 -8 0 -5 -15 -16
-32 -25 -18 -9 -55 -30 -83 -46 -59 -35 -121 -71 -225 -131 -41 -23 -83 -49
-92 -58 -10 -8 -18 -11 -18 -7 0 4 -8 2 -17 -6 -10 -8 -29 -20 -43 -28 -58
-34 -557 -325 -585 -342 -16 -11 -42 -24 -57 -30 -16 -6 -28 -14 -28 -18 0 -3
-15 -12 -32 -20 -18 -8 -35 -17 -38 -20 -4 -6 -106 -65 -206 -122 -18 -10 -50
-29 -71 -42 -21 -13 -45 -27 -53 -30 -8 -4 -33 -18 -55 -32 -22 -14 -60 -36
-85 -50 -25 -14 -58 -34 -75 -44 -58 -35 -120 -71 -160 -92 -22 -12 -42 -24
-45 -28 -3 -3 -31 -19 -62 -36 -32 -16 -58 -33 -58 -37 0 -5 -5 -8 -10 -8 -6
0 -77 -39 -158 -87 -81 -47 -165 -95 -187 -107 -22 -12 -42 -24 -45 -27 -3 -4
-25 -17 -48 -30 -65 -36 -97 -54 -217 -126 -11 -7 -26 -15 -34 -19 -8 -4 -54
-31 -103 -61 -49 -29 -91 -53 -93 -53 -3 0 -28 -15 -57 -33 -29 -19 -60 -37
-68 -40 -8 -4 -28 -16 -45 -27 -33 -22 -121 -69 -132 -72 -5 -1 -16 -9 -25
-18 -10 -9 -37 -26 -60 -38 -24 -12 -65 -36 -93 -52 -27 -17 -61 -36 -75 -43
-14 -6 -27 -15 -30 -18 -3 -4 -23 -17 -45 -28 -22 -12 -47 -26 -55 -31 -65
-40 -151 -90 -155 -90 -3 0 -28 -15 -57 -33 -29 -19 -60 -37 -68 -40 -8 -4
-33 -18 -55 -32 -22 -14 -49 -30 -60 -35 -11 -6 -33 -19 -50 -30 -16 -11 -41
-26 -55 -33 -14 -6 -53 -29 -88 -50 l-62 -38 0 -4999 0 -4999 81 -45 c45 -25
85 -46 89 -46 5 0 10 -3 12 -7 1 -5 26 -20 53 -34 100 -53 120 -64 125 -69 5
-5 94 -53 175 -94 22 -12 42 -24 45 -27 3 -4 43 -27 90 -51 47 -25 101 -55
120 -66 19 -11 55 -32 80 -45 25 -14 65 -37 90 -51 25 -14 61 -33 80 -43 19
-10 71 -38 115 -63 87 -50 167 -95 260 -145 33 -18 89 -49 123 -69 35 -20 68
-36 73 -36 5 0 9 -3 9 -7 0 -5 24 -19 53 -33 28 -14 54 -27 57 -30 3 -3 23
-15 45 -27 22 -11 58 -31 80 -43 22 -13 59 -33 83 -46 23 -13 63 -36 90 -51
26 -14 76 -42 112 -61 36 -19 77 -44 93 -54 15 -11 27 -16 27 -13 0 3 13 -3
29 -14 16 -12 34 -21 40 -21 6 0 11 -4 11 -9 0 -5 11 -12 25 -15 14 -4 25 -11
25 -16 0 -6 9 -10 19 -10 11 0 22 -4 25 -9 3 -5 25 -19 48 -31 24 -12 87 -46
140 -76 54 -30 100 -54 104 -54 4 1 10 -3 13 -8 12 -18 136 -79 151 -74 8 2
23 11 33 20 9 8 17 12 17 7 0 -4 15 4 34 19 19 14 37 26 40 26 3 0 50 27 104
60 55 33 103 60 106 60 4 0 19 8 34 19 30 20 188 113 212 124 8 4 29 16 45 26
17 11 48 29 70 41 22 12 42 25 45 29 3 3 21 14 40 23 19 10 42 22 50 28 30 19
246 145 270 157 14 7 39 22 55 33 17 11 44 26 60 35 17 8 44 24 60 35 17 11
37 23 45 27 12 5 170 97 230 133 52 31 217 126 225 129 5 2 12 7 15 10 3 3 15
12 28 19 12 6 32 18 45 25 12 6 24 14 27 17 3 3 23 14 45 25 22 11 45 24 50
28 6 4 133 79 282 166 150 87 280 164 288 171 8 7 15 9 15 4 0 -5 4 -4 8 1 4
6 23 19 42 29 19 11 37 22 40 25 3 3 23 15 45 27 83 43 110 59 113 67 2 4 8 7
14 7 5 0 28 13 51 29 23 16 44 28 47 28 3 0 23 11 45 25 22 13 85 50 140 82
55 32 107 61 115 67 8 5 44 25 80 46 36 20 67 39 70 42 3 3 30 19 60 35 30 16
63 36 73 44 9 8 17 11 17 6 0 -5 4 -4 8 2 9 13 238 144 252 144 5 0 10 5 10
10 0 6 12 16 28 22 15 7 38 20 52 29 14 9 48 29 75 43 28 15 64 36 80 47 17
10 37 22 45 26 8 4 55 31 103 60 48 29 90 53 92 53 2 0 33 18 67 40 35 22 68
40 75 40 6 0 18 7 26 14 8 8 30 23 48 34 53 29 168 95 197 113 15 9 43 25 62
36 94 54 146 84 160 93 18 11 197 115 254 148 23 13 58 35 78 48 21 13 39 24
42 24 2 0 51 28 108 62 56 34 119 70 138 80 19 10 68 39 108 63 41 25 78 45
82 45 5 0 14 9 20 19 14 27 14 3291 0 3291 -8 0 -135 72 -230 131 -8 5 -33 18
-55 30 -22 12 -42 24 -45 28 -3 3 -19 13 -35 22 -17 9 -112 64 -212 122 -101
59 -187 107 -193 107 -5 0 -10 3 -10 8 0 4 -21 18 -47 31 -27 14 -55 30 -63
37 -13 10 -40 26 -150 85 -16 9 -35 21 -42 26 -7 6 -33 22 -58 35 -88 49 -264
151 -340 198 -8 5 -91 53 -183 107 -93 54 -185 108 -205 120 -20 12 -44 25
-52 29 -8 4 -59 34 -113 66 -53 32 -102 58 -107 58 -6 0 -10 4 -10 8 0 5 -16
14 -35 22 -19 8 -35 17 -35 22 0 4 -7 8 -15 8 -8 0 -15 4 -15 8 0 4 -12 13
-27 20 -16 6 -44 21 -63 33 -19 11 -53 31 -75 42 -22 12 -42 25 -45 28 -3 3
-25 16 -50 30 -25 13 -46 27 -48 32 -2 4 -8 7 -12 7 -5 0 -37 17 -72 37 -35
21 -76 46 -93 55 -16 10 -46 26 -65 36 -19 9 -41 23 -48 30 -16 14 -25 15 -37
3 -9 -8 -72 -44 -155 -87 -19 -11 -37 -22 -40 -25 -6 -8 -84 -52 -130 -76 -19
-9 -37 -20 -40 -23 -3 -4 -30 -20 -60 -37 -30 -16 -73 -41 -95 -55 -22 -13
-47 -28 -55 -31 -8 -4 -28 -16 -45 -27 -16 -10 -46 -27 -65 -37 -19 -9 -37
-20 -40 -24 -3 -3 -27 -18 -55 -33 -59 -32 -76 -42 -132 -79 -24 -15 -43 -24
-43 -20 0 4 -4 4 -8 -2 -9 -12 -61 -44 -84 -52 -10 -3 -18 -9 -18 -14 0 -5 -4
-9 -10 -9 -5 0 -109 -58 -231 -130 -122 -72 -225 -130 -229 -130 -4 0 -17 -9
-30 -20 -13 -11 -29 -20 -37 -20 -7 0 -13 -3 -13 -8 0 -4 -15 -14 -32 -22 -18
-7 -37 -18 -43 -22 -5 -5 -57 -36 -115 -69 -58 -34 -136 -80 -175 -102 -38
-22 -72 -40 -74 -38 -2 1 -7 -1 -10 -6 -5 -9 -178 -113 -186 -113 -2 0 -40
-22 -85 -50 -45 -28 -86 -50 -91 -50 -5 0 -9 -5 -9 -12 0 -6 -3 -9 -6 -5 -4 3
-26 -7 -50 -24 -24 -16 -44 -26 -44 -22 0 4 -4 3 -8 -3 -4 -6 -72 -48 -152
-94 -80 -46 -151 -90 -159 -99 -12 -14 -13 -14 -8 5 2 12 1 27 -3 34 -4 7 -4
24 0 39 4 14 4 36 0 47 -5 11 -4 27 0 34 5 7 5 23 0 34 -4 12 -4 29 -1 40 4
10 4 39 1 65 -3 25 -3 58 0 71 4 14 3 37 -1 53 -4 15 -4 27 0 27 8 0 5 69 -3
77 -3 3 -1 16 4 29 6 16 6 24 -1 24 -6 0 -6 6 0 18 5 10 6 24 1 31 -4 8 -5 25
-1 40 7 28 6 90 -3 98 -2 3 -1 16 4 29 6 16 6 24 -1 24 -6 0 -7 6 -1 16 5 9 6
34 2 55 -4 21 -4 39 -1 39 3 0 5 17 3 38 -3 42 -3 45 -3 87 1 61 1 70 1 90 -1
11 -1 27 -1 35 2 61 -1 155 -4 159 -3 2 0 10 6 17 7 8 7 14 -1 19 -6 4 -7 12
-1 24 5 9 6 23 1 30 -4 8 -5 25 -1 40 7 28 6 90 -2 98 -3 2 -2 17 3 32 4 16 4
34 0 41 -5 7 -4 24 1 37 5 15 5 23 -2 23 -6 0 -6 6 0 18 5 10 6 24 1 31 -4 8
-5 25 -1 40 3 14 5 40 4 56 -5 55 -5 136 0 141 3 3 1 19 -3 35 -5 16 -5 29 -1
29 8 0 5 69 -3 77 -3 3 -1 16 4 29 6 16 6 24 -1 24 -6 0 -6 6 0 18 5 10 6 24
1 31 -4 8 -5 25 -1 40 7 28 6 90 -3 98 -2 3 -1 16 4 29 6 16 6 24 -1 24 -6 0
-7 6 -1 16 5 9 6 34 2 55 -4 21 -4 39 1 39 4 0 4 12 0 28 -4 15 -5 38 -1 52 4
14 3 37 -1 53 -4 15 -4 27 0 27 8 0 5 69 -3 77 -3 3 -1 16 4 29 6 16 6 24 -1
24 -6 0 -6 6 0 18 5 10 6 24 1 31 -4 8 -5 25 -1 40 7 28 6 90 -3 98 -2 3 -1
16 4 29 6 16 6 24 -1 24 -6 0 -7 6 -1 16 5 9 6 34 2 55 -4 21 -4 39 1 39 4 0
4 13 0 28 -5 16 -4 41 3 60 10 28 42 50 271 184 143 83 274 159 290 169 17 10
42 24 57 32 32 18 333 194 368 216 14 8 27 16 30 16 3 0 23 12 45 26 22 14 86
52 143 85 56 32 110 64 120 69 9 6 45 26 80 45 34 19 62 38 62 42 0 5 5 8 10
8 6 0 76 38 156 85 80 47 149 85 154 85 4 0 10 3 12 8 4 9 57 41 81 49 9 3 17
9 17 14 0 5 5 9 11 9 5 0 69 35 142 78 73 43 139 81 147 85 8 4 29 16 45 27
17 11 37 23 45 27 8 4 58 32 111 64 52 31 133 78 180 104 46 26 86 51 89 54 3
3 31 20 62 36 32 17 58 34 58 39 0 5 3 6 6 3 4 -4 19 2 33 12 50 34 56 33 53
-13 -1 -22 -2 -51 -2 -63 0 -13 0 -31 0 -40 0 -77 1 -107 5 -111 2 -3 0 -13
-6 -23 -6 -13 -6 -19 0 -19 7 0 7 -8 1 -24 -5 -13 -6 -26 -4 -29 9 -8 10 -70
3 -98 -4 -15 -3 -32 1 -40 5 -7 4 -21 -1 -31 -6 -12 -6 -18 0 -18 7 0 7 -8 2
-22 -5 -13 -5 -32 -1 -43 4 -11 4 -29 0 -39 -3 -11 -3 -38 0 -62 4 -23 3 -50
-2 -58 -6 -10 -5 -16 1 -16 7 0 7 -8 1 -24 -5 -13 -6 -26 -4 -29 9 -8 10 -70
3 -98 -4 -15 -3 -32 1 -40 5 -7 4 -21 -1 -31 -6 -12 -6 -18 0 -18 7 0 7 -8 2
-22 -5 -13 -5 -32 -1 -43 4 -11 4 -29 0 -39 -3 -11 -3 -38 0 -62 4 -23 3 -50
-2 -58 -6 -10 -5 -16 1 -16 7 0 7 -8 1 -24 -5 -13 -6 -26 -4 -29 9 -8 10 -70
3 -98 -4 -15 -3 -32 1 -40 5 -7 4 -21 -1 -31 -6 -12 -6 -18 0 -18 7 0 7 -8 1
-24 -5 -13 -7 -26 -4 -29 8 -8 11 -77 3 -77 -4 0 -4 -13 1 -29 4 -16 6 -32 3
-35 -7 -7 -6 -156 1 -164 3 -2 1 -13 -5 -23 -6 -13 -6 -19 0 -19 7 0 7 -8 1
-24 -5 -13 -6 -26 -4 -29 9 -8 10 -70 3 -98 -4 -15 -3 -32 1 -40 5 -7 4 -21
-1 -31 -6 -12 -6 -18 0 -18 7 0 7 -8 2 -22 -5 -13 -5 -32 -1 -43 4 -11 4 -29
0 -39 -3 -11 -3 -38 0 -62 4 -23 3 -50 -2 -58 -6 -10 -5 -16 1 -16 7 0 7 -8 1
-24 -5 -13 -6 -26 -4 -29 9 -8 10 -70 3 -98 -4 -15 -3 -32 1 -40 5 -7 4 -21
-1 -31 -6 -12 -6 -18 0 -18 7 0 7 -8 2 -22 -5 -13 -5 -32 -1 -43 4 -11 4 -29
0 -39 -3 -11 -3 -38 0 -62 4 -23 3 -50 -2 -58 -6 -10 -5 -16 1 -16 7 0 7 -8 1
-24 -5 -13 -6 -26 -4 -29 9 -8 10 -70 3 -98 -4 -15 -3 -32 1 -40 5 -7 4 -21
-1 -30 -6 -12 -5 -20 1 -24 7 -5 8 -11 1 -19 -6 -7 -6 -18 -1 -25 4 -8 6 -19
4 -25 -9 -24 -10 -87 -2 -92 9 -6 37 7 113 50 119 67 146 82 215 119 41 22 77
43 80 46 3 4 30 19 60 34 30 15 78 41 105 57 28 16 61 35 75 42 14 7 37 20 51
30 14 9 29 15 33 11 3 -3 6 -1 6 5 0 7 4 12 9 12 6 0 36 15 68 34 67 38 127
72 233 129 41 22 77 43 80 46 3 3 28 17 55 31 28 13 52 27 55 30 3 3 23 14 45
25 22 10 51 27 65 36 14 9 60 35 103 57 42 23 87 48 100 56 12 7 49 28 82 46
33 18 94 51 135 73 41 22 77 43 80 46 3 3 25 16 50 29 25 13 63 33 85 45 22
13 65 36 95 52 30 17 57 32 60 35 3 3 28 17 55 31 58 30 126 68 208 115 32 19
61 34 63 34 3 0 18 9 34 20 15 11 30 17 34 13 3 -3 6 -1 6 5 0 7 4 12 9 12 6
0 36 15 68 34 32 18 83 47 113 63 91 50 135 77 142 88 4 5 8 764 8 1686 l0
1677 -33 13 c-17 7 -50 25 -72 40 -22 14 -60 38 -85 51 -25 14 -67 38 -95 54
-27 15 -52 30 -55 33 -3 4 -30 19 -60 35 -30 16 -62 35 -70 42 -8 7 -26 18
-40 24 -14 6 -34 16 -45 23 -90 55 -148 87 -156 87 -5 0 -9 5 -9 10 0 6 -7 10
-15 10 -8 0 -15 5 -15 11 0 5 -4 8 -9 4 -5 -3 -13 0 -16 5 -4 6 -17 15 -28 20
-12 6 -40 21 -62 34 -53 33 -144 86 -172 100 -13 6 -23 14 -23 19 0 4 -9 7
-20 7 -11 0 -20 3 -20 8 0 4 -17 16 -37 27 -41 22 -208 119 -233 135 -8 6 -30
17 -47 25 -18 9 -33 20 -33 25 0 6 -9 10 -19 10 -11 0 -22 4 -26 9 -3 6 -18
16 -33 24 -15 8 -103 58 -197 113 -93 55 -182 105 -197 113 -16 8 -28 18 -28
23 0 4 -6 8 -13 8 -8 0 -42 18 -76 40 -33 22 -65 40 -69 41 -4 1 -23 12 -42
24 -19 12 -62 37 -95 55 -33 18 -72 41 -86 51 -15 10 -37 23 -50 29 -13 6 -37
19 -54 30 -16 10 -41 25 -55 33 -47 25 -75 42 -80 47 -5 5 -23 15 -99 58 -25
13 -79 45 -119 69 -40 24 -78 41 -84 37 -7 -4 -8 -3 -4 4 10 16 -5 15 -29 -2z"/>
</g>
</svg>
